<svg width="25" height="24" viewBox="0 0 25 24" fill="none" xmlns="http://www.w3.org/2000/svg">
<path d="M22.175 9.0375C21.6479 7.78994 20.8838 6.6565 19.925 5.7C18.9685 4.74119 17.8351 3.97707 16.5875 3.45C15.2914 2.90156 13.918 2.625 12.5 2.625C11.082 2.625 9.70859 2.90156 8.4125 3.45C7.16494 3.97707 6.0315 4.74119 5.075 5.7C4.11619 6.6565 3.35207 7.78994 2.825 9.0375C2.27656 10.3336 2 11.707 2 13.125C2 16.2352 3.36641 19.1648 5.74766 21.1664L5.7875 21.1992C5.92344 21.3117 6.09453 21.375 6.27031 21.375H18.732C18.9078 21.375 19.0789 21.3117 19.2148 21.1992L19.2547 21.1664C21.6336 19.1648 23 16.2352 23 13.125C23 11.707 22.7211 10.3336 22.175 9.0375ZM18.3453 19.5938H6.65469C5.74905 18.7772 5.02524 17.7793 4.53021 16.6649C4.03518 15.5505 3.78001 14.3444 3.78125 13.125C3.78125 10.7953 4.68828 8.60625 6.33594 6.96094C7.98359 5.31328 10.1727 4.40625 12.5 4.40625C14.8297 4.40625 17.0188 5.31328 18.6641 6.96094C20.3117 8.60859 21.2188 10.7977 21.2188 13.125C21.2188 15.6 20.1758 17.9414 18.3453 19.5938ZM15.1133 9.87891C15.078 9.84401 15.0305 9.82444 14.9809 9.82444C14.9313 9.82444 14.8837 9.84401 14.8484 9.87891L12.868 11.8594C12.4297 11.7422 11.9445 11.8547 11.6 12.1992C11.478 12.321 11.3812 12.4657 11.3151 12.6249C11.249 12.7842 11.215 12.9549 11.215 13.1273C11.215 13.2998 11.249 13.4705 11.3151 13.6297C11.3812 13.789 11.478 13.9337 11.6 14.0555C11.7218 14.1775 11.8665 14.2743 12.0257 14.3404C12.185 14.4064 12.3557 14.4404 12.5281 14.4404C12.7005 14.4404 12.8713 14.4064 13.0305 14.3404C13.1898 14.2743 13.3344 14.1775 13.4562 14.0555C13.6195 13.8927 13.7369 13.6898 13.7965 13.4671C13.8562 13.2445 13.8561 13.0101 13.7961 12.7875L15.7766 10.807C15.8492 10.7344 15.8492 10.6148 15.7766 10.5422L15.1133 9.87891ZM11.9844 7.5H13.0156C13.1187 7.5 13.2031 7.41563 13.2031 7.3125V5.4375C13.2031 5.33437 13.1187 5.25 13.0156 5.25H11.9844C11.8813 5.25 11.7969 5.33437 11.7969 5.4375V7.3125C11.7969 7.41563 11.8813 7.5 11.9844 7.5ZM18.0781 12.6094V13.6406C18.0781 13.7437 18.1625 13.8281 18.2656 13.8281H20.1406C20.2437 13.8281 20.3281 13.7437 20.3281 13.6406V12.6094C20.3281 12.5063 20.2437 12.4219 20.1406 12.4219H18.2656C18.1625 12.4219 18.0781 12.5063 18.0781 12.6094ZM18.3758 7.9875L17.6469 7.25859C17.6116 7.2237 17.564 7.20413 17.5145 7.20413C17.4649 7.20413 17.4173 7.2237 17.382 7.25859L16.0555 8.58516C16.0206 8.6204 16.001 8.66799 16.001 8.71758C16.001 8.76717 16.0206 8.81476 16.0555 8.85L16.7844 9.57891C16.857 9.65156 16.9766 9.65156 17.0492 9.57891L18.3758 8.25234C18.4484 8.17969 18.4484 8.06016 18.3758 7.9875ZM7.62734 7.25859C7.5921 7.2237 7.54452 7.20412 7.49492 7.20413C7.44533 7.20412 7.39774 7.2237 7.3625 7.25859L6.63359 7.9875C6.5987 8.02274 6.57912 8.07033 6.57913 8.11992C6.57912 8.16952 6.5987 8.2171 6.63359 8.25234L7.96016 9.57891C8.03281 9.65156 8.15234 9.65156 8.225 9.57891L8.95391 8.85C9.02656 8.77734 9.02656 8.65781 8.95391 8.58516L7.62734 7.25859ZM6.64062 12.4219H4.76562C4.6625 12.4219 4.57812 12.5063 4.57812 12.6094V13.6406C4.57812 13.7437 4.6625 13.8281 4.76562 13.8281H6.64062C6.74375 13.8281 6.82812 13.7437 6.82812 13.6406V12.6094C6.82812 12.5063 6.74375 12.4219 6.64062 12.4219Z" fill="#878A93"/>
</svg>
