<svg width="25" height="24" viewBox="0 0 25 24" fill="none" xmlns="http://www.w3.org/2000/svg">
<path d="M3.07129 5.78557C3.07129 4.93309 3.40994 4.11553 4.01273 3.51273C4.61553 2.90994 5.43309 2.57129 6.28557 2.57129H18.7141C19.5666 2.57129 20.3842 2.90994 20.987 3.51273C21.5898 4.11553 21.9284 4.93309 21.9284 5.78557V18.2141C21.9284 19.0666 21.5898 19.8842 20.987 20.487C20.3842 21.0898 19.5666 21.4284 18.7141 21.4284H6.28557C5.43309 21.4284 4.61553 21.0898 4.01273 20.487C3.40994 19.8842 3.07129 19.0666 3.07129 18.2141V5.78557ZM6.28557 3.857C5.77409 3.857 5.28355 4.06019 4.92187 4.42187C4.56019 4.78355 4.357 5.27409 4.357 5.78557V18.2141C4.357 18.7256 4.56019 19.2162 4.92187 19.5778C5.28355 19.9395 5.77409 20.1427 6.28557 20.1427H18.7141C19.2256 20.1427 19.7162 19.9395 20.0778 19.5778C20.4395 19.2162 20.6427 18.7256 20.6427 18.2141V5.78557C20.6427 5.27409 20.4395 4.78355 20.0778 4.42187C19.7162 4.06019 19.2256 3.857 18.7141 3.857H6.28557ZM10.8113 7.90272C10.9317 8.02325 10.9993 8.18664 10.9993 8.357C10.9993 8.52736 10.9317 8.69075 10.8113 8.81129L7.62272 11.9999L10.8113 15.1884C10.8744 15.2473 10.9251 15.3183 10.9602 15.3971C10.9954 15.476 11.0143 15.5611 11.0158 15.6474C11.0173 15.7337 11.0014 15.8195 10.9691 15.8995C10.9368 15.9796 10.8887 16.0523 10.8276 16.1133C10.7666 16.1744 10.6938 16.2225 10.6138 16.2548C10.5338 16.2872 10.448 16.303 10.3617 16.3015C10.2754 16.3 10.1903 16.2811 10.1114 16.246C10.0325 16.2108 9.96157 16.1602 9.90272 16.097L6.25986 12.4541C6.13947 12.3336 6.07185 12.1702 6.07185 11.9999C6.07185 11.8295 6.13947 11.6661 6.25986 11.5456L9.90272 7.90272C10.0233 7.78233 10.1866 7.71471 10.357 7.71471C10.5274 7.71471 10.6908 7.78233 10.8113 7.90272ZM15.097 7.90272C15.0381 7.83956 14.9672 7.7889 14.8883 7.75376C14.8095 7.71863 14.7243 7.69973 14.638 7.69821C14.5517 7.69669 14.466 7.71256 14.3859 7.7449C14.3059 7.77723 14.2332 7.82535 14.1721 7.8864C14.1111 7.94744 14.0629 8.02016 14.0306 8.1002C13.9983 8.18025 13.9824 8.26599 13.9839 8.35231C13.9854 8.43862 14.0043 8.52375 14.0395 8.60261C14.0746 8.68146 14.1253 8.75243 14.1884 8.81129L17.377 11.9999L14.1884 15.1884C14.1253 15.2473 14.0746 15.3183 14.0395 15.3971C14.0043 15.476 13.9854 15.5611 13.9839 15.6474C13.9824 15.7337 13.9983 15.8195 14.0306 15.8995C14.0629 15.9796 14.1111 16.0523 14.1721 16.1133C14.2332 16.1744 14.3059 16.2225 14.3859 16.2548C14.466 16.2872 14.5517 16.303 14.638 16.3015C14.7243 16.3 14.8095 16.2811 14.8883 16.246C14.9672 16.2108 15.0381 16.1602 15.097 16.097L18.7399 12.4541C18.8602 12.3336 18.9279 12.1702 18.9279 11.9999C18.9279 11.8295 18.8602 11.6661 18.7399 11.5456L15.097 7.90272Z" fill="#878A93" stroke="#878A93" stroke-width="0.5"/>
</svg>
