<svg width="25" height="24" viewBox="0 0 25 24" fill="none" xmlns="http://www.w3.org/2000/svg">
<path d="M5.22222 22C4.61111 22 4.08815 21.7826 3.65333 21.3478C3.21852 20.913 3.00074 20.3896 3 19.7778V4.22222C3 3.61111 3.21778 3.08815 3.65333 2.65333C4.08889 2.21852 4.61185 2.00074 5.22222 2H20.7778C21.3889 2 21.9122 2.21778 22.3478 2.65333C22.7833 3.08889 23.0007 3.61185 23 4.22222V19.7778C23 20.3889 22.7826 20.9122 22.3478 21.3478C21.913 21.7833 21.3896 22.0007 20.7778 22H5.22222ZM5.22222 19.7778H20.7778V4.22222H5.22222V19.7778ZM6.33333 17.5556H19.6667L15.5 12L12.1667 16.4444L9.66667 13.1111L6.33333 17.5556Z" fill="#878A93"/>
</svg>
