<svg width="25" height="24" viewBox="0 0 25 24" fill="none" xmlns="http://www.w3.org/2000/svg">
<path d="M21 4H4C3.17157 4 2.5 4.67157 2.5 5.5V18.5C2.5 19.3284 3.17157 20 4 20H21C21.8284 20 22.5 19.3284 22.5 18.5V5.5C22.5 4.67157 21.8284 4 21 4Z" stroke="#878A93" stroke-width="2" stroke-linejoin="round"/>
<path d="M2.5 5.5C2.5 5.10218 2.65804 4.72064 2.93934 4.43934C3.22064 4.15804 3.60218 4 4 4H21C21.3978 4 21.7794 4.15804 22.0607 4.43934C22.342 4.72064 22.5 5.10218 22.5 5.5V10H2.5V5.5Z" stroke="#878A93" stroke-width="2"/>
<path d="M4.5 7C4.5 6.44772 4.94772 6 5.5 6C6.05228 6 6.5 6.44772 6.5 7C6.5 7.55228 6.05228 8 5.5 8C4.94772 8 4.5 7.55228 4.5 7Z" fill="#878A93"/>
<path d="M7.5 7C7.5 6.44772 7.94772 6 8.5 6C9.05228 6 9.5 6.44772 9.5 7C9.5 7.55228 9.05228 8 8.5 8C7.94772 8 7.5 7.55228 7.5 7Z" fill="#878A93"/>
</svg>
