<svg width="25" height="24" viewBox="0 0 25 24" fill="none" xmlns="http://www.w3.org/2000/svg">
<path d="M5.89073 18.9918C5.39076 18.9918 4.96488 18.8196 4.61311 18.4752C4.26134 18.1308 4.08545 17.7139 4.08545 17.2244V7.78613C4.08545 7.29149 4.26134 6.87015 4.61311 6.5221C4.96488 6.17403 5.39076 6 5.89073 6H18.6045C19.1098 6 19.5402 6.17403 19.8957 6.5221C20.2512 6.87015 20.429 7.29149 20.429 7.78613V17.2244C20.429 17.7139 20.2512 18.1308 19.8957 18.4752C19.5402 18.8196 19.1098 18.9918 18.6045 18.9918H5.89073ZM12.2476 13.2573C12.3372 13.2573 12.4205 13.2448 12.4973 13.2197C12.5741 13.1947 12.6582 13.1568 12.7496 13.106L18.3356 9.44066C18.3997 9.40932 18.4605 9.34822 18.5181 9.25734C18.5757 9.16647 18.6045 9.06297 18.6045 8.94684C18.6045 8.72914 18.4989 8.55021 18.2876 8.41004C18.0764 8.26986 17.8619 8.27497 17.6443 8.42538L12.2476 11.8848L6.87019 8.42538C6.65253 8.2875 6.43488 8.27497 6.21722 8.38778C5.99956 8.50059 5.89073 8.68134 5.89073 8.93003C5.89073 9.04113 5.92274 9.14148 5.98676 9.23106C6.05077 9.32065 6.116 9.39093 6.18244 9.44188L11.746 13.106C11.8372 13.1568 11.9211 13.1947 11.998 13.2197C12.0748 13.2448 12.158 13.2573 12.2476 13.2573Z" fill="#C2C4C8"/>
</svg>
