<svg width="25" height="24" viewBox="0 0 25 24" fill="none" xmlns="http://www.w3.org/2000/svg">
<path d="M17.5689 9.33333H16.7517V7.80952C16.7517 5.70667 14.9213 4 12.6658 4C10.4104 4 8.57995 5.70667 8.57995 7.80952V9.33333H7.76277C6.86388 9.33333 6.12842 10.019 6.12842 10.8571V18.4762C6.12842 19.3143 6.86388 20 7.76277 20H17.5689C18.4678 20 19.2033 19.3143 19.2033 18.4762V10.8571C19.2033 10.019 18.4678 9.33333 17.5689 9.33333ZM12.6658 16.1905C11.7669 16.1905 11.0315 15.5048 11.0315 14.6667C11.0315 13.8286 11.7669 13.1429 12.6658 13.1429C13.5647 13.1429 14.3002 13.8286 14.3002 14.6667C14.3002 15.5048 13.5647 16.1905 12.6658 16.1905ZM10.2143 9.33333V7.80952C10.2143 6.54476 11.3093 5.52381 12.6658 5.52381C14.0224 5.52381 15.1174 6.54476 15.1174 7.80952V9.33333H10.2143Z" fill="#C2C4C8"/>
</svg>
