<svg width="15" height="15" viewBox="0 0 15 15" fill="none" xmlns="http://www.w3.org/2000/svg">
<path d="M7.39977 13.4128C7.23977 13.4128 7.08717 13.3828 6.94197 13.3228C6.79677 13.2628 6.66437 13.1778 6.54477 13.0678L1.72977 8.25282C1.61977 8.13282 1.53477 8.00022 1.47477 7.85502C1.41477 7.70982 1.38477 7.55742 1.38477 7.39782C1.38477 7.23822 1.41477 7.08322 1.47477 6.93282C1.53477 6.78242 1.61977 6.65242 1.72977 6.54282L6.54477 1.72782C6.66477 1.60782 6.79737 1.52022 6.94257 1.46502C7.08777 1.40982 7.24017 1.38242 7.39977 1.38282C7.55937 1.38322 7.71437 1.41082 7.86477 1.46562C8.01517 1.52042 8.14517 1.60782 8.25477 1.72782L13.0698 6.54282C13.1898 6.65282 13.2774 6.78282 13.3326 6.93282C13.3878 7.08282 13.4152 7.23782 13.4148 7.39782C13.4144 7.55782 13.387 7.71042 13.3326 7.85562C13.2782 8.00082 13.1906 8.13322 13.0698 8.25282L8.25477 13.0678C8.14477 13.1778 8.01477 13.2628 7.86477 13.3228C7.71477 13.3828 7.55977 13.4128 7.39977 13.4128ZM6.79977 7.99782H7.99977V4.39782H6.79977V7.99782ZM7.39977 9.79782C7.56977 9.79782 7.71237 9.74022 7.82757 9.62502C7.94277 9.50982 8.00017 9.36742 7.99977 9.19782C7.99937 9.02822 7.94177 8.88582 7.82697 8.77062C7.71217 8.65542 7.56977 8.59782 7.39977 8.59782C7.22977 8.59782 7.08737 8.65542 6.97257 8.77062C6.85777 8.88582 6.80017 9.02822 6.79977 9.19782C6.79937 9.36742 6.85697 9.51002 6.97257 9.62562C7.08817 9.74122 7.23057 9.79862 7.39977 9.79782Z" fill="#EF4444"/>
</svg>
