<svg width="72" height="48" viewBox="0 0 72 48" fill="none" xmlns="http://www.w3.org/2000/svg">
<g clip-path="url(#clip0_1718_2067)">
<path d="M4.06445 8.81445L13.5957 40.9844H13.9922L19.9492 21.0488L25.9082 40.9844H26.3047L33.4473 16.8789C34.8114 12.2753 34.1346 12.7852 38.2051 12.7852H41.5625L34.9258 24.3047H37.5898C39.3115 24.3047 41.1241 24.9259 42.0781 26.1699C42.2118 26.3425 42.3319 26.5304 42.4434 26.7266C42.4692 26.7718 42.4929 26.8188 42.5176 26.8652C42.6225 27.0638 42.7205 27.2694 42.8047 27.4902C43.1394 28.3684 43.3086 29.4235 43.3086 30.6582C43.3086 32.4062 42.9243 33.9015 42.1562 35.1465C41.9478 35.4842 41.726 35.7716 41.4922 36.0176C41.3426 36.1749 41.1871 36.3115 41.0273 36.4316C41.0139 36.4417 40.9998 36.4511 40.9863 36.4609C40.8235 36.5796 40.6578 36.6815 40.4844 36.7617C40.3263 36.8349 40.1612 36.8867 39.9941 36.9277C39.9515 36.9381 39.9085 36.9468 39.8652 36.9551C39.6934 36.9884 39.519 37.0117 39.3379 37.0117C39.3298 37.0117 39.3225 37.0098 39.3145 37.0098C39.3064 37.0097 39.2991 37.0079 39.291 37.0078C39.287 37.0078 39.2832 37.0063 39.2793 37.0059C39.2699 37.0057 39.2613 37.0041 39.252 37.0039C39.0138 36.9996 38.7807 36.9815 38.5566 36.9414H38.5527C38.4914 36.9304 38.4352 36.9063 38.375 36.8926C38.3625 36.8897 38.3501 36.8866 38.3379 36.8828C38.3226 36.8792 38.3082 36.873 38.293 36.8691C38.1401 36.8337 37.9867 36.7995 37.8418 36.7441C37.6135 36.6569 37.3947 36.5485 37.1836 36.418C36.9725 36.2874 36.7699 36.1351 36.5762 35.9609C36.1619 35.5109 35.85 34.9992 35.5195 34.5H31.4648C31.7397 35.317 32.0812 36.056 32.4746 36.7344L32.4629 36.7559C32.5054 36.8327 32.5624 36.9046 32.6094 36.9805C32.8894 37.4353 33.191 37.8667 33.5273 38.2559C33.8269 38.6024 34.1479 38.9223 34.4922 39.2168C34.6635 39.3634 34.8389 39.5005 35.0176 39.6289L35.0195 39.6309C35.1975 39.7586 35.3791 39.8766 35.5645 39.9863C35.6795 40.0544 35.7981 40.1127 35.916 40.1738C35.9318 40.182 35.9471 40.1912 35.9629 40.1992C36.0199 40.2306 36.0764 40.2633 36.1348 40.291C36.1366 40.2919 36.1388 40.2921 36.1406 40.293C36.3325 40.384 36.5273 40.4661 36.7266 40.5391C36.7293 40.5401 36.7317 40.542 36.7344 40.543H36.7363C36.9341 40.6151 37.1349 40.6779 37.3398 40.7324C37.3438 40.7335 37.3475 40.7353 37.3516 40.7363H37.3535C37.5575 40.7901 37.7655 40.8347 37.9766 40.8711C37.9817 40.872 37.9871 40.8721 37.9922 40.873C38.1807 40.9049 38.3723 40.9272 38.5664 40.9453C38.571 40.9457 38.5755 40.9468 38.5801 40.9473C38.5872 40.9487 38.5942 40.9505 38.6016 40.9512C38.6125 40.9531 38.6235 40.9541 38.6348 40.9551H38.6367C38.642 40.9555 38.647 40.9565 38.6523 40.957H38.6543C38.7712 40.9666 38.8924 40.9661 39.0117 40.9707C39.0365 40.9717 39.0611 40.9739 39.0859 40.9746C39.1015 40.9755 39.1171 40.9762 39.1328 40.9766C39.1931 40.9802 39.2531 40.9843 39.3145 40.9844C39.3224 40.9844 39.33 40.9844 39.3379 40.9844C39.5161 40.9844 39.6859 40.9674 39.8594 40.957V40.9473C40.046 40.9339 40.2376 40.9318 40.4199 40.9082C40.4455 40.9047 40.4706 40.9003 40.4961 40.8965C40.8384 40.8488 41.1699 40.7767 41.4922 40.6855C42.9947 40.2607 44.2853 39.3754 45.3535 38.0059C46.9025 36.0199 47.6777 33.5712 47.6777 30.6582C47.6777 28.3022 47.1469 26.2509 46.0879 24.5039C45.2836 23.1772 44.189 22.1645 42.8047 21.4629C42.7618 21.4411 42.7153 21.4235 42.6719 21.4023C42.493 21.3153 42.3133 21.2292 42.125 21.1523C41.8915 21.0566 41.6511 20.9686 41.4023 20.8887C43.7271 16.8631 46.0926 12.8609 48.3809 8.81445H35.8379C32.2136 8.81445 31.4851 9.4321 30.2266 13.7109L25.9082 28.3945L20.1484 8.81445H15.9805L16.9336 12.0137C17.7276 14.678 17.6571 15.9859 16.9121 18.5078L13.9922 28.3945L8.23438 8.81445H4.06445Z" fill="#005A9C"/>
<path d="M68.9529 8.81445C68.1339 8.81445 67.3989 9.10945 66.8419 9.67545C66.2509 10.2755 65.9219 11.0515 65.9219 11.8535C65.9219 12.6555 66.2349 13.3985 66.8089 13.9815C67.3919 14.5725 68.1429 14.8935 68.9539 14.8935C69.7469 14.8935 70.5159 14.5725 71.1149 13.9905C71.6889 13.4335 72.0009 12.6895 72.0009 11.8535C72.0009 11.0425 71.6799 10.2835 71.1229 9.71745C70.5399 9.12645 69.7799 8.81445 68.9529 8.81445ZM71.5959 11.8795C71.5959 12.5805 71.3249 13.2305 70.8269 13.7115C70.3039 14.2185 69.6539 14.4885 68.9359 14.4885C68.2609 14.4885 67.5939 14.2105 67.0959 13.7035C66.5979 13.1975 66.3189 12.5465 66.3189 11.8545C66.3189 11.1625 66.6059 10.4865 67.1209 9.96345C67.6019 9.47345 68.2519 9.21245 68.9609 9.21245C69.6869 9.21245 70.3369 9.48345 70.8439 9.99745C71.3339 10.4865 71.5959 11.1455 71.5959 11.8795ZM69.0379 10.0725H67.7379V13.5175H68.3879V12.0485H69.0299L69.7309 13.5175H70.4569L69.6879 11.9465C70.1859 11.8455 70.4729 11.5075 70.4729 11.0185C70.4729 10.3935 69.9999 10.0725 69.0379 10.0725ZM68.9189 10.4945C69.5269 10.4945 69.8049 10.6635 69.8049 11.0855C69.8049 11.4905 69.5269 11.6345 68.9349 11.6345H68.3859V10.4945H68.9189Z" fill="black"/>
<path d="M63.8399 8.63477L64.1779 10.6883C64.4934 12.605 64.1725 13.3989 63.3204 15.0293L62.1249 17.3168C62.1249 17.3168 61.2069 15.3758 59.6819 14.3018C58.3969 13.3968 57.5599 13.1998 56.2509 13.4698C54.5699 13.8168 52.6639 15.8268 51.8319 18.3048C50.8369 21.2698 50.8269 22.7048 50.7919 24.0228C50.7359 26.1358 51.0689 27.3848 51.0689 27.3848C51.0689 27.3848 49.6179 24.6988 49.6309 20.7648C49.6399 17.9568 50.0819 15.4108 51.3809 12.8978C52.5239 10.6888 54.2229 9.36277 55.7309 9.20677C57.2899 9.04577 58.5219 9.79677 59.4739 10.6108C60.4729 11.4648 61.4839 13.3308 61.4839 13.3308L63.8399 8.63477Z" fill="black"/>
<path d="M64.1342 31.8716C64.1342 31.8716 63.0772 33.7606 62.4192 34.4886C61.7602 35.2166 60.5822 36.4986 59.1272 37.1396C57.6712 37.7806 56.9092 37.9016 55.4712 37.7636C54.0342 37.6256 52.6982 36.7936 52.2302 36.4466C51.7622 36.0996 50.5662 35.0776 49.8912 34.1246C49.2152 33.1706 48.1582 31.2656 48.1582 31.2656C48.1582 31.2656 48.7472 33.1766 49.1162 33.9866C49.3282 34.4526 49.9802 35.8806 50.9062 37.1226C51.7682 38.2816 53.4452 40.2766 55.9922 40.7266C58.5392 41.1776 60.2892 40.0336 60.7222 39.7556C61.1552 39.4786 62.1545 38.8252 62.7324 38.2071C63.3355 37.5622 63.6555 37.0997 64.0576 36.2864C64.3496 35.6955 64.6023 34.3091 64.4387 33.4571L64.1342 31.8716Z" fill="black"/>
</g>
<defs>
<clipPath id="clip0_1718_2067">
<rect width="72" height="48" fill="white"/>
</clipPath>
</defs>
</svg>
