<svg width="58" height="58" viewBox="0 0 58 58" fill="none" xmlns="http://www.w3.org/2000/svg">
<path d="M40.7812 23.5625C32.2625 23.5625 25.375 30.45 25.375 38.9688C25.375 47.4875 32.2625 54.375 40.7812 54.375C49.3 54.375 56.1875 47.4875 56.1875 38.9688C56.1875 30.45 49.3 23.5625 40.7812 23.5625ZM52.5625 38.0625H47.125C47.125 34.4375 46.5813 30.8125 45.4938 28.0938C49.3 29.9062 52.2 33.5312 52.5625 38.0625ZM40.7812 50.75C40.0562 50.3875 38.425 47.4875 38.0625 41.6875H43.3187C42.9562 47.4875 41.5063 50.3875 40.7812 50.75ZM38.0625 38.0625C38.2437 31.175 40.0562 27.55 40.6 27.1875C41.325 27.55 43.1375 31.175 43.3187 38.0625H38.0625ZM36.0687 28.0938C34.9812 30.8125 34.6187 34.4375 34.4375 38.0625H29C29.3625 33.5312 32.2625 29.9062 36.0687 28.0938ZM29.3625 41.6875H34.4375C34.6187 44.5875 35.1625 47.4875 36.0687 49.8438C32.8062 48.3937 30.2688 45.3125 29.3625 41.6875ZM45.4938 49.8438C46.4 47.4875 46.9438 44.7687 47.125 41.6875H52.3812C51.2937 45.3125 48.7563 48.3937 45.4938 49.8438Z" fill="#46474C"/>
<path d="M46.7625 18.125C45.1312 9.7875 37.7 3.625 29 3.625C20.3 3.625 12.8687 9.7875 11.2375 18.3063C4.89375 19.575 0 25.0125 0 31.7188C0 39.15 6.1625 45.3125 13.5937 45.3125H19.9375V41.6875H13.5937C8.15625 41.6875 3.625 37.1562 3.625 31.7188C3.625 26.4625 7.6125 22.1125 12.8687 21.75H14.5V20.1188C15.4062 12.8688 21.5687 7.25 29 7.25C35.7062 7.25 41.325 11.9625 42.9562 18.125H46.7625Z" fill="#46474C"/>
</svg>
