<svg width="58" height="58" viewBox="0 0 58 58" fill="none" xmlns="http://www.w3.org/2000/svg">
<path d="M48.3938 45.3635C48.4051 45.3465 48.4221 45.3295 48.4334 45.3125C52.1434 40.9002 54.375 35.2135 54.375 29C54.375 22.7865 52.1434 17.0998 48.4391 12.6875C48.4277 12.6705 48.4107 12.6592 48.3994 12.6422C48.3371 12.5686 48.2805 12.5006 48.2182 12.4326C48.1955 12.4043 48.1729 12.3816 48.1502 12.3533L47.918 12.0871L47.9123 12.0814C47.8273 11.9852 47.7367 11.8889 47.6518 11.7926L47.6461 11.7869C47.4648 11.5943 47.2836 11.4018 47.0967 11.2148L47.091 11.2092L46.8191 10.9373L46.8021 10.9203C46.7172 10.8354 46.6322 10.7561 46.5473 10.6768C46.5189 10.6484 46.4906 10.6201 46.4566 10.5918C46.4 10.5352 46.3434 10.4842 46.2867 10.4332C46.2697 10.4162 46.2471 10.3992 46.2301 10.3766C41.7102 6.18516 35.6553 3.625 29 3.625C22.3447 3.625 16.2898 6.18516 11.7643 10.3766C11.7473 10.3936 11.7246 10.4105 11.7076 10.4332C11.651 10.4842 11.5943 10.5408 11.5377 10.5975C11.5094 10.6258 11.4811 10.6541 11.4471 10.6824C11.3621 10.7617 11.2771 10.8467 11.1922 10.926L11.1752 10.943L10.9033 11.2148L10.8977 11.2205C10.7107 11.4074 10.5295 11.6 10.3482 11.7926L10.3426 11.7982C10.252 11.8945 10.167 11.9908 10.082 12.0871L10.0764 12.0928C9.99707 12.1777 9.91777 12.2684 9.84414 12.359C9.82148 12.3873 9.79883 12.41 9.77617 12.4383C9.71387 12.5063 9.65723 12.5799 9.59492 12.6479C9.58359 12.6648 9.5666 12.6762 9.55527 12.6932C5.85664 17.0998 3.625 22.7865 3.625 29C3.625 35.2135 5.85664 40.9002 9.56094 45.3125C9.57227 45.3295 9.58926 45.3465 9.60059 45.3635L9.77617 45.573C9.79883 45.6014 9.82148 45.624 9.84414 45.6523L10.0764 45.9186C10.0764 45.9242 10.082 45.9242 10.082 45.9299C10.167 46.0262 10.252 46.1225 10.3426 46.2131L10.3482 46.2188C10.5295 46.4113 10.7107 46.6039 10.892 46.7908L10.8977 46.7965C10.9883 46.8871 11.0732 46.9777 11.1639 47.0627L11.1809 47.0797C11.3678 47.2666 11.5604 47.4478 11.7529 47.6234C16.2898 51.8148 22.3447 54.375 29 54.375C35.6553 54.375 41.7102 51.8148 46.2357 47.6234C46.4287 47.4466 46.6176 47.2653 46.8021 47.0797L46.8191 47.0627C46.9098 46.9721 47.0004 46.8871 47.0854 46.7965L47.091 46.7908C47.2779 46.6039 47.4592 46.4113 47.6348 46.2188L47.6404 46.2131C47.7254 46.1168 47.816 46.0262 47.901 45.9299C47.901 45.9242 47.9066 45.9242 47.9066 45.9186C47.9859 45.8336 48.0652 45.743 48.1389 45.6523C48.1615 45.624 48.1842 45.6014 48.2068 45.573C48.2709 45.5048 48.3332 45.4349 48.3938 45.3635ZM48.626 37.2865C47.8443 39.133 46.8135 40.8436 45.5561 42.3955C44.1399 41.1716 42.5916 40.1096 40.9398 39.2293C41.5969 36.5728 42.0047 33.6559 42.1123 30.5859H50.2402C50.0703 32.9025 49.5266 35.1512 48.626 37.2865ZM50.2402 27.4141H42.1123C42.0047 24.3441 41.5969 21.4271 40.9398 18.7707C42.5994 17.8871 44.1457 16.8223 45.5561 15.6045C48.2894 18.9688 49.9244 23.0909 50.2402 27.4141ZM37.2865 9.37402C39.5352 10.3256 41.5799 11.6396 43.3811 13.2936C42.3347 14.1845 41.2085 14.977 40.0166 15.6611C39.1273 13.1123 37.9889 10.8977 36.6635 9.1248C36.873 9.2041 37.0826 9.28906 37.2865 9.37402ZM32.1549 49.0564C31.6338 49.4643 31.1127 49.7758 30.5859 49.9854V39.4785C32.8334 39.6353 35.0435 40.1358 37.1393 40.9625C36.6691 42.3559 36.1254 43.6416 35.4967 44.8027C34.5111 46.6379 33.3557 48.1049 32.1549 49.0564ZM35.4967 13.1973C36.1197 14.3641 36.6691 15.6498 37.1393 17.0375C35.0435 17.8642 32.8334 18.3647 30.5859 18.5215V8.02031C31.107 8.22988 31.6338 8.53574 32.1549 8.94922C33.3557 9.89512 34.5111 11.3621 35.4967 13.1973ZM30.5859 36.301V30.5859H38.9404C38.8498 33.0895 38.5383 35.5193 38.0172 37.8246L38.0002 37.8926C35.6232 36.9912 33.1235 36.4546 30.5859 36.301ZM30.5859 27.4141V21.699C33.1801 21.5404 35.6723 20.991 38.0002 20.1074L38.0172 20.1754C38.5383 22.4807 38.8498 24.9049 38.9404 27.4141H30.5859ZM27.4141 30.5859V36.301C24.8199 36.4596 22.3277 37.009 19.9998 37.8926L19.9828 37.8246C19.4617 35.5193 19.1502 33.0951 19.0596 30.5859H27.4141ZM19.0596 27.4141C19.1502 24.9105 19.4617 22.4807 19.9828 20.1754L19.9998 20.1074C22.3277 20.991 24.8143 21.5404 27.4141 21.699V27.4141H19.0596ZM27.4141 39.4785V49.9797C26.893 49.7701 26.3662 49.4643 25.8451 49.0508C24.6443 48.1049 23.4832 46.6322 22.4977 44.7971C21.8746 43.6303 21.3252 42.3445 20.8551 40.9568C22.9621 40.1299 25.1541 39.6371 27.4141 39.4785ZM27.4141 18.5215C25.1666 18.3647 22.9565 17.8642 20.8607 17.0375C21.3309 15.6441 21.8746 14.3584 22.5033 13.1973C23.4889 11.3621 24.6443 9.88945 25.8508 8.94355C26.3719 8.53574 26.893 8.22422 27.4197 8.01465V18.5215H27.4141ZM20.7135 9.37402C20.923 9.28906 21.127 9.2041 21.3365 9.1248C20.0111 10.8977 18.8727 13.1123 17.9834 15.6611C16.7939 14.9814 15.6668 14.1885 14.6189 13.2936C16.4201 11.6396 18.4648 10.3256 20.7135 9.37402ZM9.37402 20.7135C10.1557 18.867 11.1865 17.1564 12.4439 15.6045C13.8543 16.8223 15.4006 17.8871 17.0602 18.7707C16.4031 21.4271 15.9953 24.3441 15.8877 27.4141H7.75977C7.92969 25.0975 8.47344 22.8488 9.37402 20.7135ZM7.75977 30.5859H15.8877C15.9953 33.6559 16.4031 36.5728 17.0602 39.2293C15.4084 40.1096 13.8601 41.1716 12.4439 42.3955C9.71064 39.0312 8.07564 34.9091 7.75977 30.5859ZM20.7135 48.626C18.4648 47.6744 16.4201 46.3604 14.6189 44.7064C15.6668 43.8115 16.7939 43.0242 17.9834 42.3389C18.8727 44.8877 20.0111 47.1023 21.3365 48.8752C21.127 48.7959 20.9174 48.7109 20.7135 48.626ZM37.2865 48.626C37.077 48.7109 36.873 48.7959 36.6635 48.8752C37.9889 47.1023 39.1273 44.8877 40.0166 42.3389C41.2061 43.0186 42.3332 43.8115 43.3811 44.7064C41.5899 46.3535 39.5282 47.6794 37.2865 48.626Z" fill="#46474C"/>
</svg>
