<svg width="20" height="20" viewBox="0 0 20 20" fill="none" xmlns="http://www.w3.org/2000/svg">
<path fill-rule="evenodd" clip-rule="evenodd" d="M8.33333 1.875C7.48522 1.875 6.6454 2.04205 5.86183 2.36661C5.07828 2.69118 4.36632 3.16689 3.7666 3.7666C3.16689 4.36632 2.69118 5.07828 2.36661 5.86183C2.04205 6.6454 1.875 7.48522 1.875 8.33333C1.875 9.18142 2.04205 10.0213 2.36661 10.8048C2.69118 11.5884 3.16689 12.3003 3.7666 12.9001C4.36632 13.4997 5.07828 13.9755 5.86183 14.3001C6.6454 14.6246 7.48522 14.7917 8.33333 14.7917C9.18142 14.7917 10.0213 14.6246 10.8048 14.3001C11.3953 14.0555 11.945 13.7252 12.4367 13.3206L17.0581 17.9419C17.3022 18.186 17.6978 18.186 17.9419 17.9419C18.186 17.6978 18.186 17.3022 17.9419 17.0581L13.3206 12.4367C13.7252 11.945 14.0555 11.3953 14.3001 10.8048C14.6246 10.0213 14.7917 9.18142 14.7917 8.33333C14.7917 7.48522 14.6246 6.6454 14.3001 5.86183C13.9755 5.07828 13.4997 4.36632 12.9001 3.7666C12.3003 3.16689 11.5884 2.69118 10.8048 2.36661C10.0213 2.04205 9.18142 1.875 8.33333 1.875ZM6.34019 3.52146C6.97209 3.25972 7.64937 3.125 8.33333 3.125C9.01733 3.125 9.69458 3.25972 10.3265 3.52146C10.9584 3.7832 11.5326 4.16685 12.0162 4.65048C12.4998 5.13413 12.8835 5.70828 13.1452 6.34019C13.4069 6.97209 13.5417 7.64937 13.5417 8.33333C13.5417 9.01733 13.4069 9.69458 13.1452 10.3265C12.8835 10.9584 12.4998 11.5326 12.0162 12.0162C11.5326 12.4998 10.9584 12.8835 10.3265 13.1452C9.69458 13.4069 9.01733 13.5417 8.33333 13.5417C7.64937 13.5417 6.97209 13.4069 6.34019 13.1452C5.70828 12.8835 5.13413 12.4998 4.65048 12.0162C4.16685 11.5326 3.7832 10.9584 3.52146 10.3265C3.25972 9.69458 3.125 9.01733 3.125 8.33333C3.125 7.64937 3.25972 6.97209 3.52146 6.34019C3.7832 5.70828 4.16685 5.13413 4.65048 4.65048C5.13413 4.16685 5.70828 3.7832 6.34019 3.52146Z" fill="#878A93"/>
</svg>
