<svg width="20" height="20" viewBox="0 0 20 20" fill="none" xmlns="http://www.w3.org/2000/svg">
<path d="M3.33366 16.6663C2.87533 16.6663 2.4831 16.5033 2.15699 16.1772C1.83088 15.8511 1.66755 15.4586 1.66699 14.9997V4.99967C1.66699 4.54134 1.83033 4.14912 2.15699 3.82301C2.48366 3.4969 2.87588 3.33356 3.33366 3.33301H7.64616C7.86838 3.33301 8.08032 3.37467 8.28199 3.45801C8.48366 3.54134 8.6606 3.6594 8.81282 3.81217L10.0003 4.99967H16.667C17.1253 4.99967 17.5178 5.16301 17.8445 5.48967C18.1712 5.81634 18.3342 6.20856 18.3337 6.66634V14.9997C18.3337 15.458 18.1706 15.8505 17.8445 16.1772C17.5184 16.5038 17.1259 16.6669 16.667 16.6663H3.33366Z" fill="#5A5C63"/>
</svg>
