<svg width="50" height="50" viewBox="0 0 50 50" fill="none" xmlns="http://www.w3.org/2000/svg">
<mask id="mask0_502_1750" style="mask-type:luminance" maskUnits="userSpaceOnUse" x="0" y="0" width="50" height="50">
<path d="M50 0H0V50H50V0Z" fill="white"/>
</mask>
<g mask="url(#mask0_502_1750)">
<g opacity="0.134765">
<path d="M24.9968 42.2086C24.2213 42.2086 23.4459 42.0401 22.7235 41.703L4.55827 33.2265C3.59946 32.7791 3.18489 31.6391 3.63234 30.6803C4.07971 29.7215 5.21968 29.307 6.17849 29.7545L24.3437 38.2308C24.7588 38.4244 25.2349 38.4244 25.65 38.2308L43.8152 29.7545C44.774 29.3069 45.9139 29.7215 46.3614 30.6803C46.8088 31.6391 46.3942 32.7791 45.4354 33.2265L27.2702 41.703C26.5478 42.0401 25.7723 42.2086 24.9968 42.2086Z" fill="#141725"/>
</g>
</g>
</svg>
