<svg width="32" height="32" viewBox="0 0 32 32" fill="none" xmlns="http://www.w3.org/2000/svg">
<g clip-path="url(#clip0_502_1776)">
<path d="M32 16C32 24.8471 24.8471 32 16 32C7.15294 32 0 24.8471 0 16C0 7.15294 7.15294 1.59468e-06 16 1.20797e-06C24.8471 8.21249e-07 32 7.15294 32 16ZM1.88235 16C1.88235 23.8118 8.18824 30.1176 16 30.1176C23.8118 30.1176 30.1176 23.8118 30.1176 16C30.1176 8.18824 23.8118 1.88235 16 1.88235C8.18824 1.88235 1.88235 8.18824 1.88235 16Z" fill="#C2C4C8"/>
<path d="M24.8465 15.9995L15.7171 25.1289L14.3994 23.8113L22.2112 15.9995L14.3994 8.18773L15.7171 6.87008L24.8465 15.9995Z" fill="#C2C4C8"/>
<path d="M7.53027 16.9395L7.53027 15.0571L23.5303 15.0571L23.5303 16.9395L7.53027 16.9395Z" fill="#C2C4C8"/>
</g>
<defs>
<clipPath id="clip0_502_1776">
<rect width="32" height="32" fill="white" transform="translate(0 32) rotate(-90)"/>
</clipPath>
</defs>
</svg>
