<svg width="48" height="48" viewBox="0 0 48 48" fill="none" xmlns="http://www.w3.org/2000/svg">
<rect width="48" height="48" rx="24" transform="matrix(-1 0 0 1 48 0)" fill="#DBDCDF"/>
<g clip-path="url(#clip0_304_732)">
<g clip-path="url(#clip1_304_732)">
<path d="M19 23.9893C19 24.1328 19.0239 24.2661 19.0718 24.3892C19.1265 24.519 19.2119 24.6387 19.3281 24.7481L26.957 32.2026C27.1484 32.4009 27.3843 32.5 27.6645 32.5C27.856 32.5 28.0269 32.4556 28.1772 32.3667C28.3345 32.2778 28.4575 32.1582 28.5464 32.0078C28.6421 31.8574 28.6899 31.6831 28.6899 31.4849C28.6899 31.2114 28.5874 30.9722 28.3823 30.7671L21.4507 23.9893L28.3823 17.2114C28.5874 17.0063 28.6899 16.7671 28.6899 16.4937C28.6899 16.3022 28.6421 16.1313 28.5464 15.981C28.4575 15.8237 28.3345 15.7007 28.1772 15.6118C28.0269 15.5229 27.856 15.4785 27.6645 15.4785C27.3843 15.4785 27.1484 15.5776 26.957 15.7759L19.3281 23.2305C19.2119 23.3398 19.1265 23.456 19.0718 23.5791C19.0239 23.709 19 23.8457 19 23.9893Z" fill="#70737C"/>
</g>
</g>
<defs>
<clipPath id="clip0_304_732">
<rect width="10" height="17" fill="white" transform="matrix(1 0 0 -1 19 32.5)"/>
</clipPath>
<clipPath id="clip1_304_732">
<rect width="10" height="18" fill="white" transform="matrix(1 0 0 -1 19 32.5)"/>
</clipPath>
</defs>
</svg>
