<svg width="30" height="30" viewBox="0 0 30 30" fill="none" xmlns="http://www.w3.org/2000/svg">
<path d="M26.5301 19.4291L25.5138 17.5991L23.3288 18.8141L24.3438 20.6403C24.4038 20.747 24.4471 20.857 24.4738 20.9703C24.521 21.1768 24.515 21.3919 24.4563 21.5953C24.4258 21.6984 24.3821 21.7972 24.3263 21.8891C24.2208 22.0697 24.0717 22.221 23.8926 22.3291C23.6981 22.4429 23.4766 22.5021 23.2513 22.5003H17.5001V20.0003L12.5001 23.7503L17.5001 27.5003V25.0003H23.2513C23.5988 25.0003 23.9413 24.9541 24.2651 24.8641C24.8904 24.6914 25.4591 24.3568 25.9138 23.8941C26.1363 23.6703 26.3288 23.4191 26.4838 23.1528C26.9761 22.3188 27.1266 21.3266 26.9038 20.3841C26.8207 20.051 26.6951 19.7301 26.5301 19.4291ZM7.32756 13.7991L4.44006 19.5741C4.28973 19.8727 4.18 20.1901 4.11381 20.5178C3.99201 21.1312 4.02553 21.7653 4.21132 22.3624C4.39711 22.9595 4.72926 23.5006 5.17756 23.9366C5.40006 24.1549 5.64798 24.3437 5.92131 24.5028C6.49149 24.83 7.13767 25.0016 7.79506 25.0003H10.0001V22.5003H7.79506C7.57609 22.5019 7.36056 22.4458 7.17006 22.3378C6.98865 22.2318 6.83689 22.0818 6.72881 21.9016C6.61906 21.7251 6.55505 21.524 6.54256 21.3166C6.53745 21.214 6.545 21.1111 6.56506 21.0103C6.58756 20.9012 6.62464 20.7945 6.67631 20.6903L9.49631 15.0503L11.4951 16.2041L10.7476 10.0003L5.00006 12.4553L7.32756 13.7991ZM23.2476 16.2053L23.9951 10.0003L21.9476 11.1816L18.3938 4.78534C18.1457 4.33041 17.8046 3.93286 17.3926 3.61862C16.9805 3.30438 16.5069 3.08051 16.0026 2.96159C15.6863 2.88797 15.3622 2.85313 15.0376 2.85784C14.3766 2.87006 13.7306 3.05678 13.1651 3.39909C12.5614 3.76572 12.0749 4.29691 11.7626 4.93034L10.8476 6.76034L13.0838 7.87909L13.9988 6.04784C14.0555 5.93534 14.1246 5.83451 14.2063 5.74534C14.3551 5.58259 14.5472 5.46554 14.7601 5.40784C14.9761 5.34667 15.2042 5.34194 15.4226 5.39409C15.5895 5.43303 15.7462 5.50729 15.882 5.61186C16.0179 5.71644 16.1297 5.8489 16.2101 6.00034L19.7826 12.4328L17.5001 13.7503L23.2476 16.2053Z" fill="#70737C"/>
</svg>
