<svg width="48" height="48" viewBox="0 0 48 48" fill="none" xmlns="http://www.w3.org/2000/svg">
<rect width="48" height="48" rx="24" fill="#DBDCDF"/>
<g clip-path="url(#clip0_304_726)">
<g clip-path="url(#clip1_304_726)">
<path d="M29 23.9893C29 24.1328 28.9761 24.2661 28.9282 24.3892C28.8735 24.519 28.7881 24.6387 28.6719 24.7481L21.043 32.2026C20.8516 32.4009 20.6157 32.5 20.3355 32.5C20.144 32.5 19.9731 32.4556 19.8228 32.3667C19.6655 32.2778 19.5425 32.1582 19.4536 32.0078C19.3579 31.8574 19.3101 31.6831 19.3101 31.4849C19.3101 31.2114 19.4126 30.9722 19.6177 30.7671L26.5493 23.9893L19.6177 17.2114C19.4126 17.0063 19.3101 16.7671 19.3101 16.4937C19.3101 16.3022 19.3579 16.1313 19.4536 15.981C19.5425 15.8237 19.6655 15.7007 19.8228 15.6118C19.9731 15.5229 20.144 15.4785 20.3355 15.4785C20.6157 15.4785 20.8516 15.5776 21.043 15.7759L28.6719 23.2305C28.7881 23.3398 28.8735 23.456 28.9282 23.5791C28.9761 23.709 29 23.8457 29 23.9893Z" fill="#70737C"/>
</g>
</g>
<defs>
<clipPath id="clip0_304_726">
<rect width="10" height="17" fill="white" transform="matrix(-1 0 0 -1 29 32.5)"/>
</clipPath>
<clipPath id="clip1_304_726">
<rect width="10" height="18" fill="white" transform="matrix(-1 0 0 -1 29 32.5)"/>
</clipPath>
</defs>
</svg>
