<svg width="32" height="32" viewBox="0 0 32 32" fill="none" xmlns="http://www.w3.org/2000/svg">
<path d="M6.22132 25.6778C6.09599 25.5533 6.03333 25.3987 6.03333 25.2138C6.03333 25.0289 6.09555 24.8778 6.21999 24.7605L8.95199 22.0285C8.24088 21.2027 7.68221 20.2671 7.27599 19.2218C6.86977 18.1765 6.66666 17.0685 6.66666 15.8978C6.66666 13.2925 7.57066 11.0858 9.37866 9.27779C11.1884 7.4689 13.3955 6.56445 16 6.56445H25.3333V15.8978C25.3333 18.5031 24.4293 20.7102 22.6213 22.5191C20.8115 24.3271 18.6044 25.2311 16 25.2311C14.8293 25.2311 13.7271 25.028 12.6933 24.6218C11.6595 24.2156 10.7293 23.6573 9.90266 22.9471L7.13866 25.6778C7.01955 25.8022 6.86799 25.8645 6.68399 25.8645C6.49999 25.8645 6.34666 25.8022 6.22132 25.6778ZM11.6467 20.2485C11.7711 20.3862 11.9244 20.4525 12.1067 20.4471C12.2889 20.4418 12.444 20.3765 12.572 20.2511L17.8053 15.0445C17.952 14.8969 18.0253 14.7382 18.0253 14.5685C18.0253 14.3987 17.9542 14.2427 17.812 14.1005C17.6831 13.9707 17.5267 13.9058 17.3427 13.9058C17.1578 13.9058 17.0062 13.968 16.888 14.0925L11.6467 19.3338C11.5222 19.4547 11.46 19.6053 11.46 19.7858C11.46 19.9662 11.5222 20.1205 11.6467 20.2485Z" fill="#70737C"/>
</svg>
