<svg width="142" height="100" viewBox="0 0 142 100" fill="none" xmlns="http://www.w3.org/2000/svg">
<path d="M16.9867 70.1599C20.0983 59.3697 27.5669 52.7725 37.8337 50.7392C42.1269 37.6079 53.2646 31.0738 66.0829 31.0738C67.5166 31.0738 68.884 31.1974 70.1292 31.3815C75.1683 24.0425 82.9475 20.4072 92.9037 20.5308C90.8514 15.2278 84.9998 10.6666 75.6675 10.6666C72.9302 10.6666 70.6894 11.1585 68.3238 11.9003C63.2208 4.56124 55.1311 0 45.9235 0C31.6131 0 19.7266 11.2847 18.9779 25.3393C8.02606 27.5594 0 36.8687 0 48.1508C0 58.2623 6.22332 66.9534 16.9867 70.1599ZM45.674 100H117.67C132.23 100 142 89.7675 142 76.8782C142 65.5987 133.91 56.229 123.022 54.0693C122.276 40.0752 110.639 28.6695 96.265 28.6695C86.8663 28.6695 78.6544 33.3517 73.6762 40.5671C71.332 39.7794 68.8717 39.3838 66.3962 39.3966C55.2559 39.3966 46.1094 47.4116 44.4925 58.1387C32.9167 58.5701 23.7702 67.8188 23.7702 79.0983C23.7702 90.7513 32.545 100 45.674 100Z" fill="#46474C"/>
</svg>
