<svg width="17" height="18" viewBox="0 0 17 18" fill="none" xmlns="http://www.w3.org/2000/svg">
<path fill-rule="evenodd" clip-rule="evenodd" d="M6.45833 0.875C5.61022 0.875 4.7704 1.04205 3.98683 1.36661C3.20327 1.69118 2.49132 2.16689 1.8916 2.7666C1.29189 3.36632 0.816175 4.07827 0.491608 4.86183C0.16705 5.6454 0 6.48522 0 7.33333C0 8.18142 0.16705 9.02125 0.491608 9.80483C0.816175 10.5884 1.29189 11.3003 1.8916 11.9001C2.49132 12.4997 3.20327 12.9755 3.98683 13.3001C4.7704 13.6246 5.61022 13.7917 6.45833 13.7917C7.30642 13.7917 8.14625 13.6246 8.92983 13.3001C9.52025 13.0555 10.07 12.7252 10.5617 12.3206L15.1831 16.9419C15.4272 17.186 15.8228 17.186 16.0669 16.9419C16.311 16.6978 16.311 16.3022 16.0669 16.0581L11.4456 11.4367C11.8502 10.945 12.1805 10.3953 12.4251 9.80483C12.7496 9.02125 12.9167 8.18142 12.9167 7.33333C12.9167 6.48522 12.7496 5.6454 12.4251 4.86183C12.1005 4.07827 11.6247 3.36632 11.0251 2.7666C10.4253 2.16689 9.71342 1.69118 8.92983 1.36661C8.14625 1.04205 7.30642 0.875 6.45833 0.875ZM4.46519 2.52146C5.09709 2.25972 5.77437 2.125 6.45833 2.125C7.14233 2.125 7.81958 2.25972 8.4515 2.52146C9.08342 2.7832 9.65758 3.16685 10.1412 3.65048C10.6248 4.13413 11.0085 4.70828 11.2702 5.34019C11.5319 5.97209 11.6667 6.64937 11.6667 7.33333C11.6667 8.01733 11.5319 8.69458 11.2702 9.3265C11.0085 9.95842 10.6248 10.5326 10.1412 11.0162C9.65758 11.4998 9.08342 11.8835 8.4515 12.1452C7.81958 12.4069 7.14233 12.5417 6.45833 12.5417C5.77437 12.5417 5.09709 12.4069 4.46519 12.1452C3.83328 11.8835 3.25913 11.4998 2.77548 11.0162C2.29185 10.5326 1.9082 9.95842 1.64646 9.3265C1.38472 8.69458 1.25 8.01733 1.25 7.33333C1.25 6.64937 1.38472 5.97209 1.64646 5.34019C1.9082 4.70828 2.29185 4.13413 2.77548 3.65048C3.25913 3.16685 3.83328 2.7832 4.46519 2.52146Z" fill="#878A93"/>
</svg>
