<svg width="20" height="20" viewBox="0 0 20 20" fill="none" xmlns="http://www.w3.org/2000/svg">
<path d="M4.375 4.375C4.72018 4.375 5 4.09518 5 3.75C5 3.40482 4.72018 3.125 4.375 3.125C4.02982 3.125 3.75 3.40482 3.75 3.75C3.75 4.09518 4.02982 4.375 4.375 4.375Z" fill="#878A93"/>
<path d="M6.875 4.375C7.22018 4.375 7.5 4.09518 7.5 3.75C7.5 3.40482 7.22018 3.125 6.875 3.125C6.52982 3.125 6.25 3.40482 6.25 3.75C6.25 4.09518 6.52982 4.375 6.875 4.375Z" fill="#878A93"/>
<path d="M17.8125 16.25C18.3303 16.25 18.75 15.8303 18.75 15.3125C18.75 14.7947 18.3303 14.375 17.8125 14.375C17.2947 14.375 16.875 14.7947 16.875 15.3125C16.875 15.8303 17.2947 16.25 17.8125 16.25Z" fill="#878A93"/>
<path d="M14.6875 18.125C15.2053 18.125 15.625 17.7053 15.625 17.1875C15.625 16.6697 15.2053 16.25 14.6875 16.25C14.1697 16.25 13.75 16.6697 13.75 17.1875C13.75 17.7053 14.1697 18.125 14.6875 18.125Z" fill="#878A93"/>
<path d="M11.5625 16.25C12.0803 16.25 12.5 15.8303 12.5 15.3125C12.5 14.7947 12.0803 14.375 11.5625 14.375C11.0447 14.375 10.625 14.7947 10.625 15.3125C10.625 15.8303 11.0447 16.25 11.5625 16.25Z" fill="#878A93"/>
<path d="M11.5625 13.125C12.0803 13.125 12.5 12.7053 12.5 12.1875C12.5 11.6697 12.0803 11.25 11.5625 11.25C11.0447 11.25 10.625 11.6697 10.625 12.1875C10.625 12.7053 11.0447 13.125 11.5625 13.125Z" fill="#878A93"/>
<path d="M14.6875 11.25C15.2053 11.25 15.625 10.8303 15.625 10.3125C15.625 9.79473 15.2053 9.375 14.6875 9.375C14.1697 9.375 13.75 9.79473 13.75 10.3125C13.75 10.8303 14.1697 11.25 14.6875 11.25Z" fill="#878A93"/>
<path d="M17.8125 13.125C18.3303 13.125 18.75 12.7053 18.75 12.1875C18.75 11.6697 18.3303 11.25 17.8125 11.25C17.2947 11.25 16.875 11.6697 16.875 12.1875C16.875 12.7053 17.2947 13.125 17.8125 13.125Z" fill="#878A93"/>
<path d="M17.5 1.25H2.5C2.16848 1.25 1.85054 1.3817 1.61612 1.61612C1.3817 1.85054 1.25 2.16848 1.25 2.5V15C1.25 15.3315 1.3817 15.6495 1.61612 15.8839C1.85054 16.1183 2.16848 16.25 2.5 16.25H8.125V15H2.5V6.25H17.5V8.75H18.75V2.5C18.75 2.16848 18.6183 1.85054 18.3839 1.61612C18.1495 1.3817 17.8315 1.25 17.5 1.25ZM17.5 5H2.5V2.5H17.5V5Z" fill="#878A93"/>
</svg>
