<svg width="32" height="32" viewBox="0 0 32 32" fill="none" xmlns="http://www.w3.org/2000/svg">
<path d="M14.6667 22.667H17.3334V14.667H14.6667V22.667ZM16.0001 12.0003C16.3779 12.0003 16.6947 11.8723 16.9508 11.6163C17.2067 11.3603 17.3343 11.0439 17.3334 10.667C17.3325 10.2901 17.2045 9.97366 16.9494 9.71766C16.6943 9.46166 16.3779 9.33366 16.0001 9.33366C15.6223 9.33366 15.3059 9.46166 15.0507 9.71766C14.7956 9.97366 14.6676 10.2901 14.6667 10.667C14.6659 11.0439 14.7939 11.3608 15.0507 11.6177C15.3076 11.8745 15.6241 12.0021 16.0001 12.0003ZM16.0001 29.3337C14.1556 29.3337 12.4223 28.9834 10.8001 28.283C9.17786 27.5825 7.76675 26.6328 6.56675 25.4337C5.36675 24.2345 4.41697 22.8234 3.71742 21.2003C3.01786 19.5772 2.66764 17.8439 2.66675 16.0003C2.66586 14.1568 3.01608 12.4234 3.71742 10.8003C4.41875 9.17721 5.36853 7.7661 6.56675 6.56699C7.76497 5.36788 9.17608 4.4181 10.8001 3.71766C12.4241 3.01721 14.1574 2.66699 16.0001 2.66699C17.8427 2.66699 19.5761 3.01721 21.2001 3.71766C22.8241 4.4181 24.2352 5.36788 25.4334 6.56699C26.6316 7.7661 27.5819 9.17721 28.2841 10.8003C28.9863 12.4234 29.3361 14.1568 29.3334 16.0003C29.3308 17.8439 28.9805 19.5772 28.2828 21.2003C27.585 22.8234 26.6352 24.2345 25.4334 25.4337C24.2316 26.6328 22.8205 27.583 21.2001 28.2843C19.5796 28.9857 17.8463 29.3354 16.0001 29.3337ZM16.0001 26.667C18.9779 26.667 21.5001 25.6337 23.5667 23.567C25.6334 21.5003 26.6668 18.9781 26.6668 16.0003C26.6668 13.0225 25.6334 10.5003 23.5667 8.43366C21.5001 6.36699 18.9779 5.33366 16.0001 5.33366C13.0223 5.33366 10.5001 6.36699 8.43342 8.43366C6.36675 10.5003 5.33342 13.0225 5.33342 16.0003C5.33342 18.9781 6.36675 21.5003 8.43342 23.567C10.5001 25.6337 13.0223 26.667 16.0001 26.667Z" fill="#878A93"/>
</svg>
