<svg width="36" height="36" viewBox="0 0 36 36" fill="none" xmlns="http://www.w3.org/2000/svg">
<circle cx="18" cy="18" r="17.5" fill="#C2C4C8" stroke="#878A93"/>
<path d="M23.25 12.75C23.25 14.1424 22.6969 15.4777 21.7123 16.4623C20.7277 17.4469 19.3924 18 18 18C16.6076 18 15.2723 17.4469 14.2877 16.4623C13.3031 15.4777 12.75 14.1424 12.75 12.75C12.75 11.3576 13.3031 10.0223 14.2877 9.03769C15.2723 8.05312 16.6076 7.5 18 7.5C19.3924 7.5 20.7277 8.05312 21.7123 9.03769C22.6969 10.0223 23.25 11.3576 23.25 12.75ZM21.75 12.75C21.75 11.7554 21.3549 10.8016 20.6517 10.0983C19.9484 9.39509 18.9946 9 18 9C17.0054 9 16.0516 9.39509 15.3483 10.0983C14.6451 10.8016 14.25 11.7554 14.25 12.75C14.25 13.7446 14.6451 14.6984 15.3483 15.4017C16.0516 16.1049 17.0054 16.5 18 16.5C18.9946 16.5 19.9484 16.1049 20.6517 15.4017C21.3549 14.6984 21.75 13.7446 21.75 12.75ZM11.625 19.5C10.9288 19.5 10.2611 19.7766 9.76884 20.2688C9.27656 20.7611 9 21.4288 9 22.125V22.5C9 24.2948 10.1423 25.8127 11.7638 26.8447C13.3942 27.8827 15.6015 28.5 18 28.5C20.3985 28.5 22.605 27.8827 24.2362 26.8447C25.8577 25.8127 27 24.2948 27 22.5V22.125C27 21.4288 26.7234 20.7611 26.2312 20.2688C25.7389 19.7766 25.0712 19.5 24.375 19.5H11.625ZM10.5 22.125C10.5 21.8266 10.6185 21.5405 10.8295 21.3295C11.0405 21.1185 11.3266 21 11.625 21H24.375C24.6734 21 24.9595 21.1185 25.1705 21.3295C25.3815 21.5405 25.5 21.8266 25.5 22.125V22.5C25.5 23.6047 24.795 24.7118 23.4307 25.5795C22.0755 26.442 20.1578 27 18 27C15.8422 27 13.9245 26.442 12.5692 25.5795C11.2042 24.7125 10.5 23.604 10.5 22.5V22.125Z" fill="#292A2D"/>
</svg>
