<svg width="160" height="36" viewBox="0 0 160 36" fill="none" xmlns="http://www.w3.org/2000/svg">
<rect x="0.5" y="0.5" width="159" height="35" rx="17.5" fill="#46474C" stroke="#46474C"/>
<path d="M26.456 17.208H27.56C28.5413 17.208 29.3947 17.1973 30.12 17.176C30.8453 17.1547 31.512 17.1173 32.12 17.064C32.7387 17 33.368 16.9147 34.008 16.808L34.152 17.864C33.5013 17.992 32.856 18.088 32.216 18.152C31.5867 18.2053 30.8987 18.2427 30.152 18.264C29.416 18.2853 28.552 18.296 27.56 18.296H26.456V17.208ZM26.456 10.936H33.064V12.008H27.784V17.576H26.456V10.936ZM27.352 14.008H32.808V15.08H27.352V14.008ZM35.704 9.768H37.032V20.488H35.704V9.768ZM36.616 14.264H39.16V15.368H36.616V14.264ZM28.024 22.84H37.672V23.928H28.024V22.84ZM28.024 19.528H29.336V23.416H28.024V19.528ZM40.5188 21.256H53.6388V22.376H40.5188V21.256ZM46.3588 17.752H47.6708V21.624H46.3588V17.752ZM46.3108 10.728H47.4788V11.848C47.4788 12.4773 47.3668 13.0693 47.1428 13.624C46.9294 14.168 46.6308 14.68 46.2468 15.16C45.8628 15.6293 45.4201 16.0507 44.9188 16.424C44.4281 16.7973 43.9001 17.112 43.3348 17.368C42.7694 17.624 42.1934 17.8107 41.6068 17.928L41.0308 16.824C41.5428 16.7387 42.0494 16.5893 42.5508 16.376C43.0628 16.152 43.5428 15.8853 43.9908 15.576C44.4388 15.256 44.8388 14.904 45.1908 14.52C45.5428 14.1253 45.8148 13.704 46.0068 13.256C46.2094 12.7973 46.3108 12.328 46.3108 11.848V10.728ZM46.5508 10.728H47.7028V11.848C47.7028 12.3387 47.8041 12.808 48.0068 13.256C48.2094 13.704 48.4868 14.1253 48.8388 14.52C49.1908 14.904 49.5908 15.256 50.0388 15.576C50.4974 15.896 50.9774 16.1627 51.4788 16.376C51.9908 16.5893 52.5028 16.7387 53.0148 16.824L52.4388 17.928C51.8521 17.8107 51.2761 17.624 50.7108 17.368C50.1454 17.112 49.6121 16.7973 49.1108 16.424C48.6094 16.0507 48.1668 15.6293 47.7828 15.16C47.3988 14.68 47.0948 14.1627 46.8708 13.608C46.6574 13.0533 46.5508 12.4667 46.5508 11.848V10.728ZM59.7183 11.144H60.9823V14.664H64.0223V11.144H65.2543V20.632H59.7183V11.144ZM60.9823 15.736V19.544H64.0223V15.736H60.9823ZM70.2303 9.768H71.5103V24.248H70.2303V9.768ZM67.9103 15.496H70.6943V16.6H67.9103V15.496ZM67.0143 10.072H68.2783V23.512H67.0143V10.072ZM79.797 16.984H81.109V19.16H79.797V16.984ZM73.941 16.2H86.981V17.208H73.941V16.2ZM79.797 9.688H81.109V11.432H79.797V9.688ZM79.733 11.56H80.901V11.784C80.901 12.36 80.7463 12.8667 80.437 13.304C80.1277 13.7413 79.701 14.1147 79.157 14.424C78.613 14.7333 77.9837 14.984 77.269 15.176C76.565 15.3573 75.813 15.48 75.013 15.544L74.613 14.536C75.3277 14.4933 75.9943 14.4027 76.613 14.264C77.2317 14.1147 77.7757 13.9227 78.245 13.688C78.7143 13.4533 79.077 13.176 79.333 12.856C79.5997 12.536 79.733 12.1787 79.733 11.784V11.56ZM80.021 11.56H81.173V11.784C81.173 12.1787 81.3063 12.536 81.573 12.856C81.8397 13.176 82.2077 13.4533 82.677 13.688C83.1463 13.9227 83.685 14.1147 84.293 14.264C84.9117 14.4027 85.5783 14.4933 86.293 14.536L85.893 15.544C85.093 15.48 84.3357 15.3573 83.621 15.176C82.917 14.984 82.293 14.7333 81.749 14.424C81.2157 14.1147 80.7943 13.7413 80.485 13.304C80.1757 12.8667 80.021 12.36 80.021 11.784V11.56ZM75.269 11.032H85.669V12.056H75.269V11.032ZM75.509 18.536H85.317V21.704H76.837V23.448H75.541V20.76H84.021V19.528H75.509V18.536ZM75.541 23.064H85.749V24.088H75.541V23.064ZM99.4598 12.024H102.02V13.144H99.4598V12.024ZM99.4598 15.064H102.02V16.184H99.4598V15.064ZM98.5478 9.784H99.8758V18.536H98.5478V9.784ZM89.2678 16.584H90.4038C91.2784 16.584 92.0838 16.5733 92.8198 16.552C93.5664 16.5307 94.2864 16.488 94.9798 16.424C95.6838 16.3493 96.4091 16.248 97.1558 16.12L97.2838 17.208C96.5158 17.336 95.7744 17.4373 95.0598 17.512C94.3558 17.576 93.6251 17.624 92.8678 17.656C92.1211 17.6773 91.2998 17.688 90.4038 17.688H89.2678V16.584ZM89.2358 10.68H95.7478V14.6H90.5798V17.288H89.2678V13.576H94.4518V11.752H89.2358V10.68ZM95.2518 18.952C96.2331 18.952 97.0758 19.0587 97.7798 19.272C98.4944 19.4853 99.0438 19.784 99.4278 20.168C99.8118 20.552 100.004 21.0267 100.004 21.592C100.004 22.424 99.5771 23.0693 98.7238 23.528C97.8811 23.9867 96.7238 24.216 95.2518 24.216C94.2598 24.216 93.4064 24.1147 92.6918 23.912C91.9878 23.7093 91.4438 23.4107 91.0598 23.016C90.6758 22.6213 90.4838 22.1467 90.4838 21.592C90.4838 21.0267 90.6758 20.552 91.0598 20.168C91.4438 19.784 91.9878 19.4853 92.6918 19.272C93.4064 19.0587 94.2598 18.952 95.2518 18.952ZM95.2518 19.992C94.5264 19.992 93.9024 20.056 93.3798 20.184C92.8678 20.312 92.4731 20.4933 92.1958 20.728C91.9184 20.9627 91.7798 21.2507 91.7798 21.592C91.7798 21.9227 91.9184 22.2107 92.1958 22.456C92.4731 22.6907 92.8678 22.872 93.3798 23C93.9024 23.128 94.5264 23.192 95.2518 23.192C95.9664 23.192 96.5851 23.128 97.1078 23C97.6304 22.872 98.0251 22.6907 98.2918 22.456C98.5691 22.2107 98.7078 21.9227 98.7078 21.592C98.7078 21.2507 98.5691 20.9627 98.2918 20.728C98.0251 20.4933 97.6304 20.312 97.1078 20.184C96.5851 20.056 95.9664 19.992 95.2518 19.992ZM107.315 17.416H120.435V18.488H107.315V17.416ZM113.299 17.96H114.627V21.288H113.299V17.96ZM108.979 22.84H118.979V23.928H108.979V22.84ZM108.979 19.992H110.291V23.24H108.979V19.992ZM109.059 10.232H110.371V12.072H117.379V10.232H118.691V16.024H109.059V10.232ZM110.371 13.096V14.952H117.379V13.096H110.371ZM129.474 12.792H132.898V13.896H129.474V12.792ZM125.666 10.504H126.754V12.024C126.754 12.9413 126.589 13.8 126.258 14.6C125.927 15.3893 125.463 16.0827 124.866 16.68C124.279 17.2667 123.581 17.7147 122.77 18.024L122.066 16.952C122.802 16.696 123.437 16.3227 123.97 15.832C124.514 15.3307 124.93 14.7547 125.218 14.104C125.517 13.4427 125.666 12.7493 125.666 12.024V10.504ZM125.906 10.504H126.978V12.088C126.978 12.5787 127.063 13.0587 127.234 13.528C127.405 13.9973 127.645 14.4347 127.954 14.84C128.263 15.2347 128.631 15.592 129.058 15.912C129.495 16.2213 129.975 16.4667 130.498 16.648L129.794 17.704C129.015 17.4053 128.333 16.9787 127.746 16.424C127.159 15.8587 126.706 15.208 126.386 14.472C126.066 13.7253 125.906 12.9307 125.906 12.088V10.504ZM124.29 19.128H133.954V24.248H132.626V20.2H124.29V19.128ZM132.626 9.768H133.954V18.328H132.626V9.768Z" fill="white"/>
</svg>
