<svg width="160" height="36" viewBox="0 0 160 36" fill="none" xmlns="http://www.w3.org/2000/svg">
<rect x="0.5" y="0.5" width="159" height="35" rx="17.5" fill="#46474C" stroke="#46474C"/>
<path d="M49.032 14.68H53.048V15.768H49.032V14.68ZM45.528 11.016H46.616V13.608C46.616 14.408 46.5147 15.1973 46.312 15.976C46.12 16.7547 45.8427 17.48 45.48 18.152C45.1173 18.824 44.6907 19.4213 44.2 19.944C43.72 20.4667 43.192 20.8827 42.616 21.192L41.784 20.12C42.3173 19.864 42.808 19.5067 43.256 19.048C43.7147 18.5893 44.1147 18.0667 44.456 17.48C44.7973 16.8827 45.0587 16.2587 45.24 15.608C45.432 14.9467 45.528 14.28 45.528 13.608V11.016ZM45.8 11.016H46.872V13.608C46.872 14.2587 46.9627 14.904 47.144 15.544C47.336 16.184 47.6027 16.7867 47.944 17.352C48.2853 17.9067 48.68 18.4027 49.128 18.84C49.5867 19.2773 50.0773 19.6187 50.6 19.864L49.8 20.936C49.224 20.6373 48.6907 20.2373 48.2 19.736C47.7093 19.2347 47.2827 18.6587 46.92 18.008C46.568 17.3573 46.2907 16.6587 46.088 15.912C45.896 15.1653 45.8 14.3973 45.8 13.608V11.016ZM52.392 9.768H53.704V24.264H52.392V9.768ZM67.0308 9.768H68.3588V24.264H67.0308V9.768ZM57.3348 11H58.6628V14.808H62.8388V11H64.1508V20.776H57.3348V11ZM58.6628 15.864V19.672H62.8388V15.864H58.6628ZM77.0295 10.76H78.1975V11.88C78.1975 12.5093 78.0855 13.1067 77.8615 13.672C77.6482 14.2373 77.3495 14.7653 76.9655 15.256C76.5922 15.736 76.1548 16.168 75.6535 16.552C75.1628 16.936 74.6348 17.2613 74.0695 17.528C73.5148 17.7947 72.9495 17.9973 72.3735 18.136L71.7815 17.032C72.2828 16.9253 72.7842 16.76 73.2855 16.536C73.7975 16.312 74.2775 16.04 74.7255 15.72C75.1735 15.3893 75.5682 15.0213 75.9095 14.616C76.2615 14.2107 76.5335 13.7787 76.7255 13.32C76.9282 12.8507 77.0295 12.3707 77.0295 11.88V10.76ZM77.2855 10.76H78.4215V11.88C78.4215 12.3707 78.5228 12.8507 78.7255 13.32C78.9282 13.7787 79.2002 14.2107 79.5415 14.616C79.8935 15.0213 80.2935 15.3893 80.7415 15.72C81.1895 16.04 81.6642 16.3173 82.1655 16.552C82.6775 16.776 83.1895 16.936 83.7015 17.032L83.0935 18.136C82.5175 17.9973 81.9522 17.7947 81.3975 17.528C80.8428 17.2613 80.3148 16.936 79.8135 16.552C79.3228 16.168 78.8855 15.736 78.5015 15.256C78.1175 14.7653 77.8188 14.2373 77.6055 13.672C77.3922 13.1067 77.2855 12.5093 77.2855 11.88V10.76ZM71.2375 21.192H84.3575V22.296H71.2375V21.192ZM89.925 21.256H103.045V22.376H89.925V21.256ZM95.765 17.752H97.077V21.624H95.765V17.752ZM95.717 10.728H96.885V11.848C96.885 12.4773 96.773 13.0693 96.549 13.624C96.3357 14.168 96.037 14.68 95.653 15.16C95.269 15.6293 94.8263 16.0507 94.325 16.424C93.8343 16.7973 93.3063 17.112 92.741 17.368C92.1757 17.624 91.5997 17.8107 91.013 17.928L90.437 16.824C90.949 16.7387 91.4557 16.5893 91.957 16.376C92.469 16.152 92.949 15.8853 93.397 15.576C93.845 15.256 94.245 14.904 94.597 14.52C94.949 14.1253 95.221 13.704 95.413 13.256C95.6157 12.7973 95.717 12.328 95.717 11.848V10.728ZM95.957 10.728H97.109V11.848C97.109 12.3387 97.2103 12.808 97.413 13.256C97.6157 13.704 97.893 14.1253 98.245 14.52C98.597 14.904 98.997 15.256 99.445 15.576C99.9037 15.896 100.384 16.1627 100.885 16.376C101.397 16.5893 101.909 16.7387 102.421 16.824L101.845 17.928C101.258 17.8107 100.682 17.624 100.117 17.368C99.5517 17.112 99.0183 16.7973 98.517 16.424C98.0157 16.0507 97.573 15.6293 97.189 15.16C96.805 14.68 96.501 14.1627 96.277 13.608C96.0637 13.0533 95.957 12.4667 95.957 11.848V10.728ZM115.62 9.768H116.9V24.248H115.62V9.768ZM113.284 15.592H116.068V16.68H113.284V15.592ZM109.556 11.64H110.82C110.82 12.568 110.729 13.4747 110.548 14.36C110.366 15.2453 110.068 16.0987 109.652 16.92C109.246 17.7307 108.697 18.4933 108.004 19.208C107.31 19.912 106.446 20.5573 105.412 21.144L104.644 20.2C105.86 19.5173 106.825 18.744 107.54 17.88C108.254 17.016 108.766 16.0827 109.076 15.08C109.396 14.0667 109.556 13 109.556 11.88V11.64ZM105.204 11.64H109.988V12.728H105.204V11.64ZM112.42 10.152H113.668V23.528H112.42V10.152Z" fill="white"/>
</svg>
